<svg width="72" height="99" viewBox="0 0 72 99" fill="none" xmlns="http://www.w3.org/2000/svg">
<rect x="0.44403" y="0.44403" width="71.1119" height="71.1119" rx="6.66045" stroke="#007C92" stroke-width="0.88806"/>
<g clip-path="url(#clip0)">
<path d="M36.0006 17.925C31.7821 17.925 28.3506 21.3566 28.3506 25.575C28.3506 29.7935 31.7821 33.225 36.0006 33.225C40.219 33.225 43.6506 29.7935 43.6506 25.575C43.6506 21.3566 40.219 17.925 36.0006 17.925ZM36.0006 31.95C32.4856 31.95 29.6256 29.09 29.6256 25.575C29.6256 22.06 32.4857 19.2001 36.0006 19.2001C39.5155 19.2001 42.3756 22.0601 42.3756 25.5751C42.3756 29.0901 39.5156 31.95 36.0006 31.95Z" fill="#007C92"/>
<path d="M46.1998 21.75C46.9039 21.75 47.4748 21.1792 47.4748 20.475C47.4748 19.7709 46.9039 19.2 46.1998 19.2C45.4956 19.2 44.9248 19.7709 44.9248 20.475C44.9248 21.1792 45.4956 21.75 46.1998 21.75Z" fill="#007C92"/>
<path d="M48.7502 15.375H44.7067C44.1956 15.375 43.7156 15.1758 43.3539 14.8147L41.023 12.4839C40.421 11.8819 39.6204 11.55 38.7687 11.55H33.2317C32.38 11.55 31.5794 11.8819 30.9774 12.4839L28.6465 14.8147C28.2848 15.1758 27.8048 15.375 27.2937 15.375H23.2502C21.8438 15.375 20.7002 16.5187 20.7002 17.925V34.5C20.7002 35.9063 21.8438 37.05 23.2502 37.05H48.7502C50.1566 37.05 51.3003 35.9064 51.3003 34.5V17.925C51.3002 16.5187 50.1566 15.375 48.7502 15.375ZM50.0252 34.5C50.0252 35.2029 49.4531 35.775 48.7502 35.775H23.2502C22.5474 35.775 21.9752 35.2029 21.9752 34.5V17.925C21.9752 17.2222 22.5474 16.65 23.2502 16.65H27.2937C28.1454 16.65 28.946 16.3182 29.548 15.7162L31.8789 13.3853C32.2406 13.0242 32.7206 12.825 33.2317 12.825H38.7687C39.2798 12.825 39.7598 13.0242 40.1215 13.3853L42.4524 15.7162C43.0544 16.3182 43.855 16.65 44.7067 16.65H48.7502C49.453 16.65 50.0252 17.2222 50.0252 17.925V34.5H50.0252Z" fill="#007C92"/>
</g>
<path d="M8.4317 47.388H9.4317V50.716C9.4317 50.908 9.4397 51.1026 9.4557 51.3C9.47703 51.4973 9.53036 51.676 9.6157 51.836C9.70636 51.9906 9.8397 52.1186 10.0157 52.22C10.197 52.3213 10.4504 52.372 10.7757 52.372C11.101 52.372 11.3517 52.3213 11.5277 52.22C11.709 52.1186 11.8424 51.9906 11.9277 51.836C12.0184 51.676 12.0717 51.4973 12.0877 51.3C12.109 51.1026 12.1197 50.908 12.1197 50.716V47.388H13.1197V51.044C13.1197 51.412 13.0637 51.732 12.9517 52.004C12.8397 52.276 12.6797 52.5053 12.4717 52.692C12.269 52.8733 12.0237 53.0093 11.7357 53.1C11.4477 53.1906 11.1277 53.236 10.7757 53.236C10.4237 53.236 10.1037 53.1906 9.8157 53.1C9.5277 53.0093 9.2797 52.8733 9.0717 52.692C8.86903 52.5053 8.7117 52.276 8.5997 52.004C8.4877 51.732 8.4317 51.412 8.4317 51.044V47.388ZM14.1651 48.964H15.0291V49.524H15.0451C15.1731 49.284 15.3518 49.1133 15.5811 49.012C15.8105 48.9053 16.0585 48.852 16.3251 48.852C16.6505 48.852 16.9331 48.9106 17.1731 49.028C17.4185 49.14 17.6211 49.2973 17.7811 49.5C17.9411 49.6973 18.0611 49.9293 18.1411 50.196C18.2211 50.4626 18.2611 50.748 18.2611 51.052C18.2611 51.3293 18.2238 51.5986 18.1491 51.86C18.0798 52.1213 17.9705 52.3533 17.8211 52.556C17.6771 52.7533 17.4931 52.9133 17.2691 53.036C17.0451 53.1533 16.7811 53.212 16.4771 53.212C16.3438 53.212 16.2105 53.1986 16.0771 53.172C15.9438 53.1506 15.8158 53.1133 15.6931 53.06C15.5705 53.0066 15.4558 52.94 15.3491 52.86C15.2478 52.7746 15.1625 52.676 15.0931 52.564H15.0771V54.628H14.1651V48.964ZM17.3491 51.036C17.3491 50.8493 17.3251 50.668 17.2771 50.492C17.2291 50.316 17.1571 50.1613 17.0611 50.028C16.9651 49.8893 16.8451 49.78 16.7011 49.7C16.5571 49.6146 16.3918 49.572 16.2051 49.572C15.8211 49.572 15.5305 49.7053 15.3331 49.972C15.1411 50.2386 15.0451 50.5933 15.0451 51.036C15.0451 51.244 15.0691 51.4386 15.1171 51.62C15.1705 51.796 15.2478 51.948 15.3491 52.076C15.4505 52.204 15.5705 52.3053 15.7091 52.38C15.8531 52.4546 16.0185 52.492 16.2051 52.492C16.4131 52.492 16.5891 52.4493 16.7331 52.364C16.8771 52.2786 16.9945 52.1693 17.0851 52.036C17.1811 51.8973 17.2478 51.7426 17.2851 51.572C17.3278 51.396 17.3491 51.2173 17.3491 51.036ZM19.0558 47.388H19.9678V53.1H19.0558V47.388ZM22.8574 53.212C22.5268 53.212 22.2308 53.1586 21.9694 53.052C21.7134 52.94 21.4948 52.788 21.3134 52.596C21.1374 52.404 21.0014 52.1746 20.9054 51.908C20.8148 51.6413 20.7694 51.348 20.7694 51.028C20.7694 50.7133 20.8148 50.4226 20.9054 50.156C21.0014 49.8893 21.1374 49.66 21.3134 49.468C21.4948 49.276 21.7134 49.1266 21.9694 49.02C22.2308 48.908 22.5268 48.852 22.8574 48.852C23.1881 48.852 23.4814 48.908 23.7374 49.02C23.9988 49.1266 24.2174 49.276 24.3934 49.468C24.5748 49.66 24.7108 49.8893 24.8014 50.156C24.8974 50.4226 24.9454 50.7133 24.9454 51.028C24.9454 51.348 24.8974 51.6413 24.8014 51.908C24.7108 52.1746 24.5748 52.404 24.3934 52.596C24.2174 52.788 23.9988 52.94 23.7374 53.052C23.4814 53.1586 23.1881 53.212 22.8574 53.212ZM22.8574 52.492C23.0601 52.492 23.2361 52.4493 23.3854 52.364C23.5348 52.2786 23.6574 52.1666 23.7534 52.028C23.8494 51.8893 23.9188 51.7346 23.9614 51.564C24.0094 51.388 24.0334 51.2093 24.0334 51.028C24.0334 50.852 24.0094 50.676 23.9614 50.5C23.9188 50.324 23.8494 50.1693 23.7534 50.036C23.6574 49.8973 23.5348 49.7853 23.3854 49.7C23.2361 49.6146 23.0601 49.572 22.8574 49.572C22.6548 49.572 22.4788 49.6146 22.3294 49.7C22.1801 49.7853 22.0574 49.8973 21.9614 50.036C21.8654 50.1693 21.7934 50.324 21.7454 50.5C21.7028 50.676 21.6814 50.852 21.6814 51.028C21.6814 51.2093 21.7028 51.388 21.7454 51.564C21.7934 51.7346 21.8654 51.8893 21.9614 52.028C22.0574 52.1666 22.1801 52.2786 22.3294 52.364C22.4788 52.4493 22.6548 52.492 22.8574 52.492ZM29.1676 52.18C29.1676 52.292 29.181 52.372 29.2076 52.42C29.2396 52.468 29.2983 52.492 29.3836 52.492C29.4103 52.492 29.4423 52.492 29.4796 52.492C29.517 52.492 29.5596 52.4866 29.6076 52.476V53.108C29.5756 53.1186 29.533 53.1293 29.4796 53.14C29.4316 53.156 29.381 53.1693 29.3276 53.18C29.2743 53.1906 29.221 53.1986 29.1676 53.204C29.1143 53.2093 29.069 53.212 29.0316 53.212C28.845 53.212 28.6903 53.1746 28.5676 53.1C28.445 53.0253 28.365 52.8946 28.3276 52.708C28.1463 52.884 27.9223 53.012 27.6556 53.092C27.3943 53.172 27.141 53.212 26.8956 53.212C26.709 53.212 26.5303 53.1853 26.3596 53.132C26.189 53.084 26.037 53.012 25.9036 52.916C25.7756 52.8146 25.6716 52.6893 25.5916 52.54C25.517 52.3853 25.4796 52.2066 25.4796 52.004C25.4796 51.748 25.525 51.54 25.6156 51.38C25.7116 51.22 25.8343 51.0946 25.9836 51.004C26.1383 50.9133 26.309 50.8493 26.4956 50.812C26.6876 50.7693 26.8796 50.7373 27.0716 50.716C27.237 50.684 27.3943 50.6626 27.5436 50.652C27.693 50.636 27.8236 50.612 27.9356 50.58C28.053 50.548 28.1436 50.5 28.2076 50.436C28.277 50.3666 28.3116 50.2653 28.3116 50.132C28.3116 50.0146 28.2823 49.9186 28.2236 49.844C28.1703 49.7693 28.101 49.7133 28.0156 49.676C27.9356 49.6333 27.845 49.6066 27.7436 49.596C27.6423 49.58 27.5463 49.572 27.4556 49.572C27.1996 49.572 26.989 49.6253 26.8236 49.732C26.6583 49.8386 26.565 50.004 26.5436 50.228H25.6316C25.6476 49.9613 25.7116 49.74 25.8236 49.564C25.9356 49.388 26.077 49.2466 26.2476 49.14C26.4236 49.0333 26.621 48.9586 26.8396 48.916C27.0583 48.8733 27.2823 48.852 27.5116 48.852C27.7143 48.852 27.9143 48.8733 28.1116 48.916C28.309 48.9586 28.485 49.028 28.6396 49.124C28.7996 49.22 28.9276 49.3453 29.0236 49.5C29.1196 49.6493 29.1676 49.8333 29.1676 50.052V52.18ZM28.2556 51.028C28.117 51.1186 27.9463 51.1746 27.7436 51.196C27.541 51.212 27.3383 51.2386 27.1356 51.276C27.0396 51.292 26.9463 51.316 26.8556 51.348C26.765 51.3746 26.685 51.4146 26.6156 51.468C26.5463 51.516 26.4903 51.5826 26.4476 51.668C26.4103 51.748 26.3916 51.8466 26.3916 51.964C26.3916 52.0653 26.421 52.1506 26.4796 52.22C26.5383 52.2893 26.6076 52.3453 26.6876 52.388C26.773 52.4253 26.8636 52.452 26.9596 52.468C27.061 52.484 27.1516 52.492 27.2316 52.492C27.333 52.492 27.4423 52.4786 27.5596 52.452C27.677 52.4253 27.7863 52.38 27.8876 52.316C27.9943 52.252 28.0823 52.172 28.1516 52.076C28.221 51.9746 28.2556 51.852 28.2556 51.708V51.028ZM34.0449 53.1H33.1809V52.54H33.1649C33.0423 52.78 32.8636 52.9533 32.6289 53.06C32.3943 53.1613 32.1463 53.212 31.8849 53.212C31.5596 53.212 31.2743 53.156 31.0289 53.044C30.7889 52.9266 30.5889 52.7693 30.4289 52.572C30.2689 52.3746 30.1489 52.1426 30.0689 51.876C29.9889 51.604 29.9489 51.3133 29.9489 51.004C29.9489 50.6306 29.9996 50.308 30.1009 50.036C30.2023 49.764 30.3356 49.54 30.5009 49.364C30.6716 49.188 30.8636 49.06 31.0769 48.98C31.2956 48.8946 31.5169 48.852 31.7409 48.852C31.8689 48.852 31.9996 48.8653 32.1329 48.892C32.2663 48.9133 32.3943 48.9506 32.5169 49.004C32.6396 49.0573 32.7516 49.1266 32.8529 49.212C32.9596 49.292 33.0476 49.388 33.1169 49.5H33.1329V47.388H34.0449V53.1ZM30.8609 51.076C30.8609 51.252 30.8823 51.4253 30.9249 51.596C30.9729 51.7666 31.0423 51.9186 31.1329 52.052C31.2289 52.1853 31.3489 52.292 31.4929 52.372C31.6369 52.452 31.8076 52.492 32.0049 52.492C32.2076 52.492 32.3809 52.4493 32.5249 52.364C32.6743 52.2786 32.7943 52.1666 32.8849 52.028C32.9809 51.8893 33.0503 51.7346 33.0929 51.564C33.1409 51.388 33.1649 51.2093 33.1649 51.028C33.1649 50.5693 33.0609 50.212 32.8529 49.956C32.6503 49.7 32.3729 49.572 32.0209 49.572C31.8076 49.572 31.6263 49.6173 31.4769 49.708C31.3329 49.7933 31.2129 49.908 31.1169 50.052C31.0263 50.1906 30.9596 50.3506 30.9169 50.532C30.8796 50.708 30.8609 50.8893 30.8609 51.076ZM37.3941 47.388H39.9141C40.3195 47.388 40.6501 47.4466 40.9061 47.564C41.1621 47.6813 41.3595 47.828 41.4981 48.004C41.6368 48.18 41.7301 48.372 41.7781 48.58C41.8315 48.788 41.8581 48.98 41.8581 49.156C41.8581 49.332 41.8315 49.524 41.7781 49.732C41.7301 49.9346 41.6368 50.124 41.4981 50.3C41.3595 50.476 41.1621 50.6226 40.9061 50.74C40.6501 50.852 40.3195 50.908 39.9141 50.908H38.3941V53.1H37.3941V47.388ZM38.3941 50.092H39.8581C39.9701 50.092 40.0848 50.076 40.2021 50.044C40.3195 50.012 40.4261 49.9613 40.5221 49.892C40.6235 49.8173 40.7035 49.7213 40.7621 49.604C40.8261 49.4813 40.8581 49.3293 40.8581 49.148C40.8581 48.9613 40.8315 48.8066 40.7781 48.684C40.7248 48.5613 40.6528 48.4653 40.5621 48.396C40.4715 48.3213 40.3675 48.2706 40.2501 48.244C40.1328 48.2173 40.0075 48.204 39.8741 48.204H38.3941V50.092ZM42.6021 47.388H43.5141V49.508H43.5301C43.6421 49.3213 43.8074 49.1666 44.0261 49.044C44.2501 48.916 44.4981 48.852 44.7701 48.852C45.2234 48.852 45.5807 48.9693 45.8421 49.204C46.1034 49.4386 46.2341 49.7906 46.2341 50.26V53.1H45.3221V50.5C45.3114 50.1746 45.2421 49.94 45.1141 49.796C44.9861 49.6466 44.7861 49.572 44.5141 49.572C44.3594 49.572 44.2207 49.6013 44.0981 49.66C43.9754 49.7133 43.8714 49.7906 43.7861 49.892C43.7007 49.988 43.6341 50.1026 43.5861 50.236C43.5381 50.3693 43.5141 50.5106 43.5141 50.66V53.1H42.6021V47.388ZM49.0918 53.212C48.7612 53.212 48.4652 53.1586 48.2038 53.052C47.9478 52.94 47.7292 52.788 47.5478 52.596C47.3718 52.404 47.2358 52.1746 47.1398 51.908C47.0492 51.6413 47.0038 51.348 47.0038 51.028C47.0038 50.7133 47.0492 50.4226 47.1398 50.156C47.2358 49.8893 47.3718 49.66 47.5478 49.468C47.7292 49.276 47.9478 49.1266 48.2038 49.02C48.4652 48.908 48.7612 48.852 49.0918 48.852C49.4225 48.852 49.7158 48.908 49.9718 49.02C50.2332 49.1266 50.4518 49.276 50.6278 49.468C50.8092 49.66 50.9452 49.8893 51.0358 50.156C51.1318 50.4226 51.1798 50.7133 51.1798 51.028C51.1798 51.348 51.1318 51.6413 51.0358 51.908C50.9452 52.1746 50.8092 52.404 50.6278 52.596C50.4518 52.788 50.2332 52.94 49.9718 53.052C49.7158 53.1586 49.4225 53.212 49.0918 53.212ZM49.0918 52.492C49.2945 52.492 49.4705 52.4493 49.6198 52.364C49.7692 52.2786 49.8918 52.1666 49.9878 52.028C50.0838 51.8893 50.1532 51.7346 50.1958 51.564C50.2438 51.388 50.2678 51.2093 50.2678 51.028C50.2678 50.852 50.2438 50.676 50.1958 50.5C50.1532 50.324 50.0838 50.1693 49.9878 50.036C49.8918 49.8973 49.7692 49.7853 49.6198 49.7C49.4705 49.6146 49.2945 49.572 49.0918 49.572C48.8892 49.572 48.7132 49.6146 48.5638 49.7C48.4145 49.7853 48.2918 49.8973 48.1958 50.036C48.0998 50.1693 48.0278 50.324 47.9798 50.5C47.9372 50.676 47.9158 50.852 47.9158 51.028C47.9158 51.2093 47.9372 51.388 47.9798 51.564C48.0278 51.7346 48.0998 51.8893 48.1958 52.028C48.2918 52.1666 48.4145 52.2786 48.5638 52.364C48.7132 52.4493 48.8892 52.492 49.0918 52.492ZM51.522 48.964H52.21V47.724H53.122V48.964H53.946V49.644H53.122V51.852C53.122 51.948 53.1247 52.0306 53.13 52.1C53.1407 52.1693 53.1593 52.228 53.186 52.276C53.218 52.324 53.2633 52.3613 53.322 52.388C53.3807 52.4093 53.4607 52.42 53.562 52.42C53.626 52.42 53.69 52.42 53.754 52.42C53.818 52.4146 53.882 52.404 53.946 52.388V53.092C53.8447 53.1026 53.746 53.1133 53.65 53.124C53.554 53.1346 53.4553 53.14 53.354 53.14C53.114 53.14 52.9193 53.1186 52.77 53.076C52.626 53.028 52.5113 52.9613 52.426 52.876C52.346 52.7853 52.29 52.6733 52.258 52.54C52.2313 52.4066 52.2153 52.2546 52.21 52.084V49.644H51.522V48.964ZM56.4981 53.212C56.1674 53.212 55.8714 53.1586 55.6101 53.052C55.3541 52.94 55.1354 52.788 54.9541 52.596C54.7781 52.404 54.6421 52.1746 54.5461 51.908C54.4554 51.6413 54.4101 51.348 54.4101 51.028C54.4101 50.7133 54.4554 50.4226 54.5461 50.156C54.6421 49.8893 54.7781 49.66 54.9541 49.468C55.1354 49.276 55.3541 49.1266 55.6101 49.02C55.8714 48.908 56.1674 48.852 56.4981 48.852C56.8287 48.852 57.1221 48.908 57.3781 49.02C57.6394 49.1266 57.8581 49.276 58.0341 49.468C58.2154 49.66 58.3514 49.8893 58.4421 50.156C58.5381 50.4226 58.5861 50.7133 58.5861 51.028C58.5861 51.348 58.5381 51.6413 58.4421 51.908C58.3514 52.1746 58.2154 52.404 58.0341 52.596C57.8581 52.788 57.6394 52.94 57.3781 53.052C57.1221 53.1586 56.8287 53.212 56.4981 53.212ZM56.4981 52.492C56.7007 52.492 56.8767 52.4493 57.0261 52.364C57.1754 52.2786 57.2981 52.1666 57.3941 52.028C57.4901 51.8893 57.5594 51.7346 57.6021 51.564C57.6501 51.388 57.6741 51.2093 57.6741 51.028C57.6741 50.852 57.6501 50.676 57.6021 50.5C57.5594 50.324 57.4901 50.1693 57.3941 50.036C57.2981 49.8973 57.1754 49.7853 57.0261 49.7C56.8767 49.6146 56.7007 49.572 56.4981 49.572C56.2954 49.572 56.1194 49.6146 55.9701 49.7C55.8207 49.7853 55.6981 49.8973 55.6021 50.036C55.5061 50.1693 55.4341 50.324 55.3861 50.5C55.3434 50.676 55.3221 50.852 55.3221 51.028C55.3221 51.2093 55.3434 51.388 55.3861 51.564C55.4341 51.7346 55.5061 51.8893 55.6021 52.028C55.6981 52.1666 55.8207 52.2786 55.9701 52.364C56.1194 52.4493 56.2954 52.492 56.4981 52.492ZM60.0323 51.772C60.0589 52.0386 60.1603 52.2253 60.3363 52.332C60.5123 52.4386 60.7229 52.492 60.9683 52.492C61.0536 52.492 61.1496 52.4866 61.2563 52.476C61.3683 52.46 61.4723 52.4333 61.5683 52.396C61.6643 52.3586 61.7416 52.3053 61.8003 52.236C61.8643 52.1613 61.8936 52.0653 61.8883 51.948C61.8829 51.8306 61.8403 51.7346 61.7603 51.66C61.6803 51.5853 61.5763 51.5266 61.4483 51.484C61.3256 51.436 61.1843 51.396 61.0243 51.364C60.8643 51.332 60.7016 51.2973 60.5363 51.26C60.3656 51.2226 60.2003 51.1773 60.0403 51.124C59.8856 51.0706 59.7443 50.9986 59.6163 50.908C59.4936 50.8173 59.3949 50.7026 59.3203 50.564C59.2456 50.42 59.2083 50.244 59.2083 50.036C59.2083 49.812 59.2616 49.6253 59.3683 49.476C59.4803 49.3213 59.6189 49.1986 59.7843 49.108C59.9549 49.012 60.1416 48.9453 60.3443 48.908C60.5523 48.8706 60.7496 48.852 60.9363 48.852C61.1496 48.852 61.3523 48.876 61.5443 48.924C61.7416 48.9666 61.9176 49.0386 62.0723 49.14C62.2323 49.2413 62.3629 49.3746 62.4643 49.54C62.5709 49.7 62.6376 49.8946 62.6643 50.124H61.7123C61.6696 49.9053 61.5683 49.7586 61.4083 49.684C61.2536 49.6093 61.0749 49.572 60.8723 49.572C60.8083 49.572 60.7309 49.5773 60.6403 49.588C60.5549 49.5986 60.4723 49.62 60.3923 49.652C60.3176 49.6786 60.2536 49.7213 60.2003 49.78C60.1469 49.8333 60.1203 49.9053 60.1203 49.996C60.1203 50.108 60.1576 50.1986 60.2323 50.268C60.3123 50.3373 60.4136 50.396 60.5363 50.444C60.6643 50.4866 60.8083 50.524 60.9683 50.556C61.1283 50.588 61.2936 50.6226 61.4643 50.66C61.6296 50.6973 61.7923 50.7426 61.9523 50.796C62.1123 50.8493 62.2536 50.9213 62.3763 51.012C62.5043 51.1026 62.6056 51.2173 62.6803 51.356C62.7603 51.4946 62.8003 51.6653 62.8003 51.868C62.8003 52.1133 62.7443 52.3213 62.6323 52.492C62.5203 52.6626 62.3736 52.8013 62.1923 52.908C62.0163 53.0146 61.8189 53.092 61.6003 53.14C61.3816 53.188 61.1656 53.212 60.9523 53.212C60.6909 53.212 60.4483 53.1826 60.2243 53.124C60.0056 53.0653 59.8136 52.9773 59.6483 52.86C59.4883 52.7373 59.3603 52.588 59.2643 52.412C59.1736 52.2306 59.1256 52.0173 59.1203 51.772H60.0323Z" fill="#007C92"/>
<g filter="url(#filter0_d)">
<circle cx="36.5" cy="72" r="13" fill="#007C92"/>
</g>
<path d="M36.5002 77.7778C36.0446 77.7778 35.6748 77.408 35.6748 76.9524V67.0476C35.6748 66.592 36.0446 66.2222 36.5002 66.2222C36.9558 66.2222 37.3256 66.592 37.3256 67.0476V76.9524C37.3256 77.408 36.9558 77.7778 36.5002 77.7778Z" fill="white"/>
<path d="M41.4518 72.8254H31.5471C31.0915 72.8254 30.7217 72.4556 30.7217 72C30.7217 71.5444 31.0915 71.1746 31.5471 71.1746H41.4518C41.9075 71.1746 42.2772 71.5444 42.2772 72C42.2772 72.4556 41.9075 72.8254 41.4518 72.8254Z" fill="white"/>
<defs>
<filter id="filter0_d" x="10.5" y="47" width="52" height="52" filterUnits="userSpaceOnUse" color-interpolation-filters="sRGB">
<feFlood flood-opacity="0" result="BackgroundImageFix"/>
<feColorMatrix in="SourceAlpha" type="matrix" values="0 0 0 0 0 0 0 0 0 0 0 0 0 0 0 0 0 0 127 0" result="hardAlpha"/>
<feOffset dy="1"/>
<feGaussianBlur stdDeviation="6.5"/>
<feColorMatrix type="matrix" values="0 0 0 0 0 0 0 0 0 0 0 0 0 0 0 0 0 0 0.1 0"/>
<feBlend mode="normal" in2="BackgroundImageFix" result="effect1_dropShadow"/>
<feBlend mode="normal" in="SourceGraphic" in2="effect1_dropShadow" result="shape"/>
</filter>
<clipPath id="clip0">
<rect width="30.6" height="30.6" fill="white" transform="translate(20.7002 8.99998)"/>
</clipPath>
</defs>
</svg>
